<svg width="23" height="23" viewBox="0 0 23 23" fill="none" xmlns="http://www.w3.org/2000/svg">
<path d="M11.5001 0C5.14882 0 0 5.17035 0 11.5481C0 17.2683 4.146 22.0055 9.58209 22.9229V13.9574H6.80793V10.7311H9.58209V8.35215C9.58209 5.59189 11.261 4.0877 13.7134 4.0877C14.888 4.0877 15.8974 4.17559 16.1904 4.2143V7.09952L14.4895 7.10034C13.156 7.10034 12.8989 7.73651 12.8989 8.67037V10.7294H16.0807L15.6657 13.9557H12.8989V23C18.5888 22.3046 23 17.4467 23 11.5448C23 5.17035 17.8512 0 11.5001 0Z" fill="#1772EA"/>
</svg>
