<svg width="23" height="23" viewBox="0 0 23 23" fill="none" xmlns="http://www.w3.org/2000/svg">
<path d="M5.09729 13.8992L4.29669 16.8879L1.37052 16.9498C0.496027 15.3278 0 13.4721 0 11.5C0 9.59301 0.463773 7.79469 1.28584 6.21124H1.28647L3.89158 6.68885L5.03278 9.27833C4.79393 9.97466 4.66374 10.7222 4.66374 11.5C4.66383 12.3442 4.81675 13.153 5.09729 13.8992Z" fill="#FBBB00"/>
<path d="M22.7992 9.35165C22.9312 10.0473 23.0001 10.7658 23.0001 11.5C23.0001 12.3233 22.9135 13.1264 22.7486 13.9011C22.1888 16.5373 20.726 18.8392 18.6996 20.4681L18.699 20.4675L15.4177 20.3001L14.9533 17.401C16.2979 16.6125 17.3488 15.3784 17.9023 13.9011H11.7529V9.35165H17.992H22.7992Z" fill="#518EF8"/>
<path d="M18.6989 20.4675L18.6996 20.4681C16.7288 22.0522 14.2253 23 11.5001 23C7.12061 23 3.31298 20.5522 1.37061 16.9499L5.09737 13.8992C6.06854 16.4911 8.56884 18.3362 11.5001 18.3362C12.76 18.3362 13.9404 17.9956 14.9532 17.401L18.6989 20.4675Z" fill="#28B446"/>
<path d="M18.8406 2.64752L15.1151 5.69753C14.0668 5.0423 12.8277 4.66379 11.5001 4.66379C8.50256 4.66379 5.95549 6.5935 5.03297 9.27834L1.28662 6.21126C3.20056 2.52115 7.05558 0 11.5001 0C14.2905 0 16.8489 0.993942 18.8406 2.64752Z" fill="#F14336"/>
</svg>
